<?xml version="1.0" encoding="UTF-8"?>
<svg version="1.1" xmlns="http://www.w3.org/2000/svg" width="32" height="32">
<path d="M0 0 C1.051875 -0.00386719 1.051875 -0.00386719 2.125 -0.0078125 C4 0.125 4 0.125 6 1.125 C6 3.435 6 5.745 6 8.125 C7.27875 8.104375 8.5575 8.08375 9.875 8.0625 C13.75 8 13.75 8 16 9.125 C16 13.745 16 18.365 16 23.125 C13.72926921 24.2603654 12.45716721 24.25392412 9.9375 24.2578125 C9.14085937 24.25910156 8.34421875 24.26039062 7.5234375 24.26171875 C6.69070312 24.25785156 5.85796875 24.25398438 5 24.25 C3.75089844 24.25580078 3.75089844 24.25580078 2.4765625 24.26171875 C1.67992187 24.26042969 0.88328125 24.25914063 0.0625 24.2578125 C-0.66839844 24.25668457 -1.39929688 24.25555664 -2.15234375 24.25439453 C-4 24.125 -4 24.125 -6 23.125 C-6 15.865 -6 8.605 -6 1.125 C-3.75487738 0.00243869 -2.48543351 -0.00913762 0 0 Z M-3 3.125 C-3 3.785 -3 4.445 -3 5.125 C-1.02 5.125 0.96 5.125 3 5.125 C3 4.465 3 3.805 3 3.125 C1.02 3.125 -0.96 3.125 -3 3.125 Z M-3 8.125 C-3 8.455 -3 8.785 -3 9.125 C-1.02 9.125 0.96 9.125 3 9.125 C3 8.795 3 8.465 3 8.125 C1.02 8.125 -0.96 8.125 -3 8.125 Z M7 11.125 C7 11.785 7 12.445 7 13.125 C8.98 13.125 10.96 13.125 13 13.125 C13 12.465 13 11.805 13 11.125 C11.02 11.125 9.04 11.125 7 11.125 Z M-3 12.125 C-3 12.455 -3 12.785 -3 13.125 C-1.02 13.125 0.96 13.125 3 13.125 C3 12.795 3 12.465 3 12.125 C1.02 12.125 -0.96 12.125 -3 12.125 Z M-3 16.125 C-3 16.455 -3 16.785 -3 17.125 C-1.02 17.125 0.96 17.125 3 17.125 C3 16.795 3 16.465 3 16.125 C1.02 16.125 -0.96 16.125 -3 16.125 Z M7 16.125 C7 16.455 7 16.785 7 17.125 C8.98 17.125 10.96 17.125 13 17.125 C13 16.795 13 16.465 13 16.125 C11.02 16.125 9.04 16.125 7 16.125 Z M-3 20.125 C-3 20.455 -3 20.785 -3 21.125 C-1.02 21.125 0.96 21.125 3 21.125 C3 20.795 3 20.465 3 20.125 C1.02 20.125 -0.96 20.125 -3 20.125 Z M7 20.125 C7 20.455 7 20.785 7 21.125 C8.98 21.125 10.96 21.125 13 21.125 C13 20.795 13 20.465 13 20.125 C11.02 20.125 9.04 20.125 7 20.125 Z " fill="#000000" transform="translate(11,3.875)"/>
</svg>
